<svg width="304" height="300" viewBox="0 0 304 300" fill="none" xmlns="http://www.w3.org/2000/svg">
<g filter="url(#filter0_ddd_4890_413715)">
<g clip-path="url(#clip0_4890_413715)">
<path d="M12 12C12 5.37258 17.3726 0 24 0H280C286.627 0 292 5.37258 292 12V264C292 270.627 286.627 276 280 276H24C17.3726 276 12 270.627 12 264V12Z" fill="white"/>
<path d="M12 0L292 0L292 200L12 200L12 0Z" fill="url(#paint0_linear_4890_413715)"/>
<path d="M25.4382 233V219.909H27.4134V231.3H33.3452V233H25.4382ZM38.3022 233.217C37.68 233.217 37.1175 233.102 36.6147 232.872C36.1119 232.638 35.7134 232.299 35.4194 231.856C35.1296 231.413 34.9847 230.869 34.9847 230.226C34.9847 229.672 35.0913 229.216 35.3043 228.858C35.5174 228.5 35.805 228.217 36.1673 228.008C36.5295 227.799 36.9343 227.641 37.3817 227.535C37.8292 227.428 38.2852 227.347 38.7496 227.292C39.3377 227.224 39.815 227.168 40.1815 227.126C40.5479 227.079 40.8143 227.004 40.9805 226.902C41.1467 226.8 41.2298 226.634 41.2298 226.403V226.359C41.2298 225.8 41.0721 225.368 40.7567 225.061C40.4457 224.754 39.9812 224.601 39.3633 224.601C38.7198 224.601 38.2127 224.744 37.842 225.029C37.4755 225.31 37.2219 225.624 37.0813 225.969L35.2852 225.56C35.4982 224.963 35.8093 224.482 36.2184 224.115C36.6317 223.744 37.1069 223.476 37.6438 223.31C38.1808 223.139 38.7454 223.054 39.3377 223.054C39.7298 223.054 40.1452 223.101 40.5842 223.195C41.0273 223.284 41.4407 223.45 41.8242 223.693C42.212 223.936 42.5295 224.283 42.7766 224.735C43.0238 225.183 43.1474 225.764 43.1474 226.48V233H41.2809V231.658H41.2042C41.0806 231.905 40.8952 232.148 40.6481 232.386C40.4009 232.625 40.0835 232.823 39.6957 232.981C39.3079 233.138 38.8434 233.217 38.3022 233.217ZM38.7177 231.683C39.2461 231.683 39.6978 231.579 40.0728 231.37C40.4521 231.161 40.7397 230.888 40.9357 230.552C41.136 230.211 41.2362 229.847 41.2362 229.459V228.193C41.168 228.261 41.0359 228.325 40.8398 228.385C40.6481 228.44 40.4286 228.489 40.1815 228.532C39.9343 228.57 39.6935 228.607 39.4592 228.641C39.2248 228.67 39.0288 228.696 38.8711 228.717C38.5004 228.764 38.1616 228.843 37.8548 228.954C37.5522 229.065 37.3093 229.224 37.1261 229.433C36.9471 229.638 36.8576 229.911 36.8576 230.251C36.8576 230.724 37.0323 231.082 37.3817 231.325C37.7312 231.564 38.1765 231.683 38.7177 231.683ZM49.8095 236.886C49.0297 236.886 48.3585 236.784 47.796 236.58C47.2377 236.375 46.7818 236.104 46.4281 235.768C46.0744 235.431 45.8102 235.063 45.6355 234.662L47.2782 233.984C47.3933 234.172 47.5467 234.37 47.7385 234.579C47.9345 234.792 48.1987 234.973 48.5311 235.122C48.8677 235.271 49.3002 235.346 49.8287 235.346C50.5531 235.346 51.1518 235.169 51.6248 234.815C52.0978 234.466 52.3343 233.908 52.3343 233.141V231.21H52.2129C52.0978 231.419 51.9316 231.651 51.7143 231.907C51.5012 232.163 51.2072 232.384 50.8322 232.572C50.4572 232.759 49.9693 232.853 49.3684 232.853C48.5929 232.853 47.894 232.672 47.2718 232.31C46.6539 231.943 46.1639 231.404 45.8017 230.692C45.4437 229.977 45.2647 229.097 45.2647 228.053C45.2647 227.009 45.4416 226.114 45.7953 225.368C46.1532 224.622 46.6433 224.051 47.2654 223.655C47.8876 223.254 48.5929 223.054 49.3812 223.054C49.9906 223.054 50.4828 223.156 50.8578 223.361C51.2328 223.561 51.5247 223.795 51.7335 224.064C51.9466 224.332 52.1106 224.569 52.2257 224.773H52.3663V223.182H54.2392V233.217C54.2392 234.061 54.0431 234.754 53.6511 235.295C53.2591 235.836 52.7285 236.237 52.0595 236.496C51.3947 236.756 50.6447 236.886 49.8095 236.886ZM49.7903 231.268C50.34 231.268 50.8045 231.14 51.1838 230.884C51.5673 230.624 51.8571 230.254 52.0531 229.772C52.2534 229.286 52.3535 228.705 52.3535 228.027C52.3535 227.366 52.2555 226.785 52.0595 226.282C51.8635 225.779 51.5758 225.387 51.1966 225.106C50.8173 224.82 50.3485 224.678 49.7903 224.678C49.215 224.678 48.7356 224.827 48.3521 225.125C47.9686 225.419 47.6788 225.82 47.4828 226.327C47.291 226.834 47.1951 227.401 47.1951 228.027C47.1951 228.67 47.2931 229.235 47.4892 229.721C47.6852 230.207 47.975 230.586 48.3585 230.859C48.7463 231.131 49.2235 231.268 49.7903 231.268ZM60.938 233.198C60.0176 233.198 59.2143 232.987 58.5282 232.565C57.8422 232.143 57.3095 231.553 56.9302 230.795C56.551 230.036 56.3613 229.15 56.3613 228.136C56.3613 227.117 56.551 226.227 56.9302 225.464C57.3095 224.701 57.8422 224.109 58.5282 223.687C59.2143 223.265 60.0176 223.054 60.938 223.054C61.8585 223.054 62.6618 223.265 63.3478 223.687C64.0339 224.109 64.5666 224.701 64.9458 225.464C65.3251 226.227 65.5147 227.117 65.5147 228.136C65.5147 229.15 65.3251 230.036 64.9458 230.795C64.5666 231.553 64.0339 232.143 63.3478 232.565C62.6618 232.987 61.8585 233.198 60.938 233.198ZM60.9444 231.594C61.541 231.594 62.0353 231.436 62.4274 231.121C62.8194 230.805 63.1092 230.386 63.2967 229.862C63.4885 229.337 63.5843 228.76 63.5843 228.129C63.5843 227.503 63.4885 226.928 63.2967 226.403C63.1092 225.875 62.8194 225.451 62.4274 225.131C62.0353 224.812 61.541 224.652 60.9444 224.652C60.3436 224.652 59.845 224.812 59.4487 225.131C59.0566 225.451 58.7647 225.875 58.573 226.403C58.3855 226.928 58.2917 227.503 58.2917 228.129C58.2917 228.76 58.3855 229.337 58.573 229.862C58.7647 230.386 59.0566 230.805 59.4487 231.121C59.845 231.436 60.3436 231.594 60.9444 231.594ZM71.7837 233.198C70.8633 233.198 70.06 232.987 69.3739 232.565C68.6879 232.143 68.1552 231.553 67.7759 230.795C67.3967 230.036 67.207 229.15 67.207 228.136C67.207 227.117 67.3967 226.227 67.7759 225.464C68.1552 224.701 68.6879 224.109 69.3739 223.687C70.06 223.265 70.8633 223.054 71.7837 223.054C72.7042 223.054 73.5075 223.265 74.1935 223.687C74.8796 224.109 75.4123 224.701 75.7915 225.464C76.1708 226.227 76.3604 227.117 76.3604 228.136C76.3604 229.15 76.1708 230.036 75.7915 230.795C75.4123 231.553 74.8796 232.143 74.1935 232.565C73.5075 232.987 72.7042 233.198 71.7837 233.198ZM71.7901 231.594C72.3867 231.594 72.881 231.436 73.2731 231.121C73.6651 230.805 73.9549 230.386 74.1424 229.862C74.3342 229.337 74.43 228.76 74.43 228.129C74.43 227.503 74.3342 226.928 74.1424 226.403C73.9549 225.875 73.6651 225.451 73.2731 225.131C72.881 224.812 72.3867 224.652 71.7901 224.652C71.1893 224.652 70.6907 224.812 70.2944 225.131C69.9023 225.451 69.6104 225.875 69.4187 226.403C69.2312 226.928 69.1374 227.503 69.1374 228.129C69.1374 228.76 69.2312 229.337 69.4187 229.862C69.6104 230.386 69.9023 230.805 70.2944 231.121C70.6907 231.436 71.1893 231.594 71.7901 231.594ZM80.405 227.17V233H78.4938V223.182H80.3283V224.78H80.4498C80.6756 224.26 81.0293 223.842 81.5108 223.527C81.9966 223.212 82.6081 223.054 83.3453 223.054C84.0144 223.054 84.6003 223.195 85.1032 223.476C85.606 223.753 85.9959 224.166 86.2729 224.716C86.5499 225.266 86.6884 225.945 86.6884 226.755V233H84.7772V226.985C84.7772 226.273 84.5918 225.717 84.2211 225.317C83.8503 224.912 83.3411 224.71 82.6934 224.71C82.2502 224.71 81.856 224.805 81.5108 224.997C81.1699 225.189 80.8993 225.47 80.699 225.841C80.503 226.207 80.405 226.651 80.405 227.17Z" fill="#1C1917"/>
<path d="M29.5682 258L31.4773 246.364H32.6136L30.7045 258H29.5682ZM24.2727 254.773L24.4545 253.636H33.1364L32.9545 254.773H24.2727ZM25.4773 258L27.3864 246.364H28.5227L26.6136 258H25.4773ZM24.9545 250.727L25.1364 249.591H33.8182L33.6364 250.727H24.9545ZM39.0938 258.159C38.2377 258.159 37.5085 257.926 36.9062 257.46C36.304 256.991 35.8438 256.311 35.5256 255.42C35.2074 254.527 35.0483 253.447 35.0483 252.182C35.0483 250.924 35.2074 249.85 35.5256 248.96C35.8475 248.066 36.3097 247.384 36.9119 246.915C37.518 246.441 38.2453 246.205 39.0938 246.205C39.9422 246.205 40.6676 246.441 41.2699 246.915C41.8759 247.384 42.3381 248.066 42.6562 248.96C42.9782 249.85 43.1392 250.924 43.1392 252.182C43.1392 253.447 42.9801 254.527 42.6619 255.42C42.3438 256.311 41.8835 256.991 41.2812 257.46C40.679 257.926 39.9498 258.159 39.0938 258.159ZM39.0938 256.909C39.9422 256.909 40.6013 256.5 41.071 255.682C41.5407 254.864 41.7756 253.697 41.7756 252.182C41.7756 251.174 41.6676 250.316 41.4517 249.608C41.2396 248.9 40.9328 248.36 40.5312 247.989C40.1335 247.617 39.6544 247.432 39.0938 247.432C38.2528 247.432 37.5956 247.847 37.1222 248.676C36.6487 249.502 36.4119 250.67 36.4119 252.182C36.4119 253.189 36.518 254.045 36.7301 254.75C36.9422 255.455 37.2472 255.991 37.6449 256.358C38.0464 256.725 38.5294 256.909 39.0938 256.909ZM49.0938 258.159C48.2377 258.159 47.5085 257.926 46.9062 257.46C46.304 256.991 45.8438 256.311 45.5256 255.42C45.2074 254.527 45.0483 253.447 45.0483 252.182C45.0483 250.924 45.2074 249.85 45.5256 248.96C45.8475 248.066 46.3097 247.384 46.9119 246.915C47.518 246.441 48.2453 246.205 49.0938 246.205C49.9422 246.205 50.6676 246.441 51.2699 246.915C51.8759 247.384 52.3381 248.066 52.6562 248.96C52.9782 249.85 53.1392 250.924 53.1392 252.182C53.1392 253.447 52.9801 254.527 52.6619 255.42C52.3438 256.311 51.8835 256.991 51.2812 257.46C50.679 257.926 49.9498 258.159 49.0938 258.159ZM49.0938 256.909C49.9422 256.909 50.6013 256.5 51.071 255.682C51.5407 254.864 51.7756 253.697 51.7756 252.182C51.7756 251.174 51.6676 250.316 51.4517 249.608C51.2396 248.9 50.9328 248.36 50.5312 247.989C50.1335 247.617 49.6544 247.432 49.0938 247.432C48.2528 247.432 47.5956 247.847 47.1222 248.676C46.6487 249.502 46.4119 250.67 46.4119 252.182C46.4119 253.189 46.518 254.045 46.7301 254.75C46.9422 255.455 47.2472 255.991 47.6449 256.358C48.0464 256.725 48.5294 256.909 49.0938 256.909ZM55.5028 258V246.364H59.571C60.3816 246.364 61.0502 246.504 61.5767 246.784C62.1032 247.061 62.4953 247.434 62.7528 247.903C63.0104 248.369 63.1392 248.886 63.1392 249.455C63.1392 249.955 63.0502 250.367 62.8722 250.693C62.6979 251.019 62.4669 251.277 62.179 251.466C61.8949 251.655 61.5862 251.795 61.2528 251.886V252C61.6089 252.023 61.9669 252.148 62.3267 252.375C62.6866 252.602 62.9877 252.928 63.2301 253.352C63.4725 253.777 63.5938 254.295 63.5938 254.909C63.5938 255.492 63.4612 256.017 63.196 256.483C62.9309 256.949 62.5123 257.318 61.9403 257.591C61.3684 257.864 60.6241 258 59.7074 258H55.5028ZM56.9119 256.75H59.7074C60.6278 256.75 61.2813 256.572 61.6676 256.216C62.0578 255.856 62.2528 255.42 62.2528 254.909C62.2528 254.515 62.1525 254.152 61.9517 253.818C61.7509 253.481 61.465 253.212 61.0938 253.011C60.7225 252.807 60.2831 252.705 59.7756 252.705H56.9119V256.75ZM56.9119 251.477H59.5256C59.9498 251.477 60.3324 251.394 60.6733 251.227C61.018 251.061 61.2907 250.826 61.4915 250.523C61.696 250.22 61.7983 249.864 61.7983 249.455C61.7983 248.943 61.6203 248.509 61.2642 248.153C60.9081 247.794 60.3438 247.614 59.571 247.614H56.9119V251.477ZM65.9091 258V246.364H72.8864V247.614H67.3182V251.545H72.3636V252.795H67.3182V258H65.9091ZM75.2997 258V246.364H79.3679C80.1785 246.364 80.8471 246.504 81.3736 246.784C81.9001 247.061 82.2921 247.434 82.5497 247.903C82.8073 248.369 82.9361 248.886 82.9361 249.455C82.9361 249.955 82.8471 250.367 82.669 250.693C82.4948 251.019 82.2637 251.277 81.9759 251.466C81.6918 251.655 81.383 251.795 81.0497 251.886V252C81.4058 252.023 81.7637 252.148 82.1236 252.375C82.4834 252.602 82.7846 252.928 83.027 253.352C83.2694 253.777 83.3906 254.295 83.3906 254.909C83.3906 255.492 83.258 256.017 82.9929 256.483C82.7277 256.949 82.3092 257.318 81.7372 257.591C81.1652 257.864 80.4209 258 79.5043 258H75.2997ZM76.7088 256.75H79.5043C80.4247 256.75 81.0781 256.572 81.4645 256.216C81.8546 255.856 82.0497 255.42 82.0497 254.909C82.0497 254.515 81.9493 254.152 81.7486 253.818C81.5478 253.481 81.2618 253.212 80.8906 253.011C80.5194 252.807 80.08 252.705 79.5724 252.705H76.7088V256.75ZM76.7088 251.477H79.3224C79.7467 251.477 80.1293 251.394 80.4702 251.227C80.8149 251.061 81.0876 250.826 81.2884 250.523C81.4929 250.22 81.5952 249.864 81.5952 249.455C81.5952 248.943 81.4171 248.509 81.0611 248.153C80.705 247.794 80.1406 247.614 79.3679 247.614H76.7088V251.477ZM85.5014 258V256.977L89.3423 252.773C89.7931 252.28 90.1643 251.852 90.456 251.489C90.7476 251.121 90.9635 250.777 91.1037 250.455C91.2476 250.129 91.3196 249.788 91.3196 249.432C91.3196 249.023 91.2211 248.669 91.0241 248.369C90.831 248.07 90.5658 247.839 90.2287 247.676C89.8916 247.513 89.5128 247.432 89.0923 247.432C88.6454 247.432 88.2552 247.525 87.9219 247.71C87.5923 247.892 87.3366 248.148 87.1548 248.477C86.9768 248.807 86.8878 249.193 86.8878 249.636H85.5469C85.5469 248.955 85.7041 248.356 86.0185 247.841C86.3329 247.326 86.7609 246.924 87.3026 246.636C87.848 246.348 88.4598 246.205 89.1378 246.205C89.8196 246.205 90.4238 246.348 90.9503 246.636C91.4768 246.924 91.8897 247.312 92.1889 247.801C92.4882 248.29 92.6378 248.833 92.6378 249.432C92.6378 249.86 92.5601 250.278 92.4048 250.688C92.2533 251.093 91.9882 251.545 91.6094 252.045C91.2344 252.542 90.7135 253.148 90.0469 253.864L87.4332 256.659V256.75H92.8423V258H85.5014Z" fill="#57534E"/>
<path d="M129.147 246.364V258H127.738V247.841H127.67L124.829 249.727V248.295L127.738 246.364H129.147ZM136.221 258.159C135.441 258.159 134.751 258.021 134.153 257.744C133.558 257.464 133.094 257.08 132.761 256.591C132.427 256.098 132.263 255.538 132.266 254.909C132.263 254.417 132.359 253.962 132.556 253.545C132.753 253.125 133.022 252.775 133.363 252.494C133.708 252.21 134.092 252.03 134.516 251.955V251.886C133.96 251.742 133.516 251.43 133.187 250.949C132.857 250.464 132.694 249.913 132.698 249.295C132.694 248.705 132.844 248.176 133.147 247.71C133.45 247.244 133.867 246.877 134.397 246.608C134.931 246.339 135.539 246.205 136.221 246.205C136.895 246.205 137.497 246.339 138.028 246.608C138.558 246.877 138.975 247.244 139.278 247.71C139.585 248.176 139.74 248.705 139.744 249.295C139.74 249.913 139.571 250.464 139.238 250.949C138.908 251.43 138.471 251.742 137.925 251.886V251.955C138.346 252.03 138.725 252.21 139.062 252.494C139.399 252.775 139.668 253.125 139.869 253.545C140.069 253.962 140.172 254.417 140.175 254.909C140.172 255.538 140.001 256.098 139.664 256.591C139.331 257.08 138.867 257.464 138.272 257.744C137.681 258.021 136.997 258.159 136.221 258.159ZM136.221 256.909C136.747 256.909 137.202 256.824 137.585 256.653C137.967 256.483 138.263 256.242 138.471 255.932C138.679 255.621 138.785 255.258 138.789 254.841C138.785 254.402 138.672 254.013 138.448 253.676C138.225 253.339 137.92 253.074 137.533 252.881C137.151 252.687 136.713 252.591 136.221 252.591C135.725 252.591 135.281 252.687 134.891 252.881C134.505 253.074 134.2 253.339 133.977 253.676C133.757 254.013 133.649 254.402 133.653 254.841C133.649 255.258 133.749 255.621 133.954 255.932C134.162 256.242 134.46 256.483 134.846 256.653C135.232 256.824 135.691 256.909 136.221 256.909ZM136.221 251.386C136.638 251.386 137.007 251.303 137.329 251.136C137.655 250.97 137.91 250.737 138.096 250.438C138.281 250.138 138.376 249.788 138.38 249.386C138.376 248.992 138.283 248.65 138.102 248.358C137.92 248.062 137.668 247.835 137.346 247.676C137.024 247.513 136.649 247.432 136.221 247.432C135.785 247.432 135.405 247.513 135.079 247.676C134.753 247.835 134.501 248.062 134.323 248.358C134.145 248.65 134.058 248.992 134.062 249.386C134.058 249.788 134.147 250.138 134.329 250.438C134.514 250.737 134.77 250.97 135.096 251.136C135.422 251.303 135.797 251.386 136.221 251.386ZM146.148 258.159C145.292 258.159 144.563 257.926 143.961 257.46C143.359 256.991 142.898 256.311 142.58 255.42C142.262 254.527 142.103 253.447 142.103 252.182C142.103 250.924 142.262 249.85 142.58 248.96C142.902 248.066 143.364 247.384 143.967 246.915C144.573 246.441 145.3 246.205 146.148 246.205C146.997 246.205 147.722 246.441 148.325 246.915C148.931 247.384 149.393 248.066 149.711 248.96C150.033 249.85 150.194 250.924 150.194 252.182C150.194 253.447 150.035 254.527 149.717 255.42C149.398 256.311 148.938 256.991 148.336 257.46C147.734 257.926 147.004 258.159 146.148 258.159ZM146.148 256.909C146.997 256.909 147.656 256.5 148.126 255.682C148.595 254.864 148.83 253.697 148.83 252.182C148.83 251.174 148.722 250.316 148.506 249.608C148.294 248.9 147.987 248.36 147.586 247.989C147.188 247.617 146.709 247.432 146.148 247.432C145.308 247.432 144.65 247.847 144.177 248.676C143.703 249.502 143.467 250.67 143.467 252.182C143.467 253.189 143.573 254.045 143.785 254.75C143.997 255.455 144.302 255.991 144.7 256.358C145.101 256.725 145.584 256.909 146.148 256.909ZM155.671 258.182C154.944 258.182 154.302 257.998 153.745 257.631C153.188 257.259 152.753 256.737 152.438 256.062C152.124 255.384 151.967 254.583 151.967 253.659C151.967 252.742 152.124 251.947 152.438 251.273C152.753 250.598 153.19 250.078 153.751 249.71C154.311 249.343 154.959 249.159 155.694 249.159C156.262 249.159 156.711 249.254 157.04 249.443C157.374 249.629 157.628 249.841 157.802 250.08C157.98 250.314 158.118 250.508 158.217 250.659H158.33V246.364H159.671V258H158.376V256.659H158.217C158.118 256.818 157.978 257.019 157.796 257.261C157.614 257.5 157.355 257.714 157.018 257.903C156.681 258.089 156.232 258.182 155.671 258.182ZM155.853 256.977C156.391 256.977 156.845 256.837 157.217 256.557C157.588 256.273 157.87 255.881 158.063 255.381C158.256 254.877 158.353 254.295 158.353 253.636C158.353 252.985 158.258 252.415 158.069 251.926C157.879 251.434 157.599 251.051 157.228 250.778C156.857 250.502 156.398 250.364 155.853 250.364C155.285 250.364 154.811 250.509 154.433 250.801C154.058 251.089 153.775 251.481 153.586 251.977C153.4 252.47 153.308 253.023 153.308 253.636C153.308 254.258 153.402 254.822 153.592 255.33C153.785 255.833 154.069 256.235 154.444 256.534C154.823 256.83 155.292 256.977 155.853 256.977ZM165.972 258.182C165.131 258.182 164.406 257.996 163.796 257.625C163.19 257.25 162.722 256.727 162.393 256.057C162.067 255.383 161.904 254.598 161.904 253.705C161.904 252.811 162.067 252.023 162.393 251.341C162.722 250.655 163.181 250.121 163.768 249.739C164.359 249.352 165.048 249.159 165.836 249.159C166.29 249.159 166.739 249.235 167.183 249.386C167.626 249.538 168.029 249.784 168.393 250.125C168.756 250.462 169.046 250.909 169.262 251.466C169.478 252.023 169.586 252.708 169.586 253.523V254.091H162.859V252.932H168.222C168.222 252.439 168.124 252 167.927 251.614C167.734 251.227 167.457 250.922 167.097 250.699C166.741 250.475 166.321 250.364 165.836 250.364C165.302 250.364 164.84 250.496 164.45 250.761C164.063 251.023 163.766 251.364 163.558 251.784C163.349 252.205 163.245 252.655 163.245 253.136V253.909C163.245 254.568 163.359 255.127 163.586 255.585C163.817 256.04 164.137 256.386 164.546 256.625C164.955 256.86 165.431 256.977 165.972 256.977C166.325 256.977 166.643 256.928 166.927 256.83C167.215 256.727 167.463 256.576 167.671 256.375C167.879 256.17 168.04 255.917 168.154 255.614L169.45 255.977C169.313 256.417 169.084 256.803 168.762 257.136C168.44 257.466 168.042 257.723 167.569 257.909C167.095 258.091 166.563 258.182 165.972 258.182ZM175.148 261.455C174.501 261.455 173.944 261.371 173.478 261.205C173.012 261.042 172.624 260.826 172.313 260.557C172.006 260.292 171.762 260.008 171.58 259.705L172.648 258.955C172.77 259.114 172.923 259.295 173.109 259.5C173.294 259.708 173.548 259.888 173.87 260.04C174.196 260.195 174.622 260.273 175.148 260.273C175.853 260.273 176.434 260.102 176.893 259.761C177.351 259.42 177.58 258.886 177.58 258.159V256.386H177.467C177.368 256.545 177.228 256.742 177.046 256.977C176.868 257.208 176.611 257.415 176.273 257.597C175.94 257.775 175.489 257.864 174.921 257.864C174.217 257.864 173.584 257.697 173.023 257.364C172.467 257.03 172.025 256.545 171.7 255.909C171.378 255.273 171.217 254.5 171.217 253.591C171.217 252.697 171.374 251.919 171.688 251.256C172.003 250.589 172.44 250.074 173.001 249.71C173.561 249.343 174.209 249.159 174.944 249.159C175.512 249.159 175.963 249.254 176.296 249.443C176.633 249.629 176.891 249.841 177.069 250.08C177.251 250.314 177.391 250.508 177.489 250.659H177.626V249.273H178.921V258.25C178.921 259 178.751 259.61 178.41 260.08C178.073 260.553 177.618 260.9 177.046 261.119C176.478 261.343 175.845 261.455 175.148 261.455ZM175.103 256.659C175.641 256.659 176.095 256.536 176.467 256.29C176.838 256.044 177.12 255.689 177.313 255.227C177.506 254.765 177.603 254.212 177.603 253.568C177.603 252.939 177.508 252.384 177.319 251.903C177.129 251.422 176.849 251.045 176.478 250.773C176.107 250.5 175.648 250.364 175.103 250.364C174.535 250.364 174.061 250.508 173.683 250.795C173.308 251.083 173.025 251.47 172.836 251.955C172.65 252.439 172.558 252.977 172.558 253.568C172.558 254.174 172.652 254.71 172.842 255.176C173.035 255.638 173.319 256.002 173.694 256.267C174.073 256.528 174.542 256.659 175.103 256.659Z" fill="#57534E"/>
<path d="M219.131 258L221.04 246.364H222.176L220.267 258H219.131ZM213.835 254.773L214.017 253.636H222.699L222.517 254.773H213.835ZM215.04 258L216.949 246.364H218.085L216.176 258H215.04ZM214.517 250.727L214.699 249.591H223.381L223.199 250.727H214.517ZM225.065 258V246.364H232.043V247.614H226.474V251.545H231.52V252.795H226.474V258H225.065ZM234.456 258V246.364H241.433V247.614H235.865V251.545H240.911V252.795H235.865V258H234.456ZM243.847 258V246.364H250.824V247.614H245.256V251.545H250.301V252.795H245.256V258H243.847ZM253.237 258V246.364H260.214V247.614H254.646V251.545H259.692V252.795H254.646V258H253.237ZM262.628 258V246.364H269.605V247.614H264.037V251.545H269.082V252.795H264.037V258H262.628ZM272.018 258V246.364H278.996V247.614H273.428V251.545H278.473V252.795H273.428V258H272.018Z" fill="#57534E"/>
</g>
<path d="M24 0.5H280C286.351 0.5 291.5 5.64873 291.5 12V264C291.5 270.351 286.351 275.5 280 275.5H24C17.6487 275.5 12.5 270.351 12.5 264V12C12.5 5.64873 17.6487 0.5 24 0.5Z" stroke="black" stroke-opacity="0.1"/>
</g>
<defs>
<filter id="filter0_ddd_4890_413715" x="0" y="0" width="304" height="300" filterUnits="userSpaceOnUse" color-interpolation-filters="sRGB">
<feFlood flood-opacity="0" result="BackgroundImageFix"/>
<feColorMatrix in="SourceAlpha" type="matrix" values="0 0 0 0 0 0 0 0 0 0 0 0 0 0 0 0 0 0 127 0" result="hardAlpha"/>
<feMorphology radius="1" operator="erode" in="SourceAlpha" result="effect1_dropShadow_4890_413715"/>
<feOffset dy="2"/>
<feGaussianBlur stdDeviation="1"/>
<feComposite in2="hardAlpha" operator="out"/>
<feColorMatrix type="matrix" values="0 0 0 0 0.0392157 0 0 0 0 0.0496732 0 0 0 0 0.0705882 0 0 0 0.04 0"/>
<feBlend mode="normal" in2="BackgroundImageFix" result="effect1_dropShadow_4890_413715"/>
<feColorMatrix in="SourceAlpha" type="matrix" values="0 0 0 0 0 0 0 0 0 0 0 0 0 0 0 0 0 0 127 0" result="hardAlpha"/>
<feMorphology radius="2" operator="erode" in="SourceAlpha" result="effect2_dropShadow_4890_413715"/>
<feOffset dy="4"/>
<feGaussianBlur stdDeviation="3"/>
<feComposite in2="hardAlpha" operator="out"/>
<feColorMatrix type="matrix" values="0 0 0 0 0.0392157 0 0 0 0 0.0496732 0 0 0 0 0.0705882 0 0 0 0.03 0"/>
<feBlend mode="normal" in2="effect1_dropShadow_4890_413715" result="effect2_dropShadow_4890_413715"/>
<feColorMatrix in="SourceAlpha" type="matrix" values="0 0 0 0 0 0 0 0 0 0 0 0 0 0 0 0 0 0 127 0" result="hardAlpha"/>
<feMorphology radius="4" operator="erode" in="SourceAlpha" result="effect3_dropShadow_4890_413715"/>
<feOffset dy="12"/>
<feGaussianBlur stdDeviation="8"/>
<feComposite in2="hardAlpha" operator="out"/>
<feColorMatrix type="matrix" values="0 0 0 0 0.0392157 0 0 0 0 0.0496732 0 0 0 0 0.0705882 0 0 0 0.08 0"/>
<feBlend mode="normal" in2="effect2_dropShadow_4890_413715" result="effect3_dropShadow_4890_413715"/>
<feBlend mode="normal" in="SourceGraphic" in2="effect3_dropShadow_4890_413715" result="shape"/>
</filter>
<linearGradient id="paint0_linear_4890_413715" x1="12" y1="0" x2="12" y2="200" gradientUnits="userSpaceOnUse">
<stop stop-color="#00BFB2"/>
<stop offset="1" stop-color="white"/>
</linearGradient>
<clipPath id="clip0_4890_413715">
<path d="M12 12C12 5.37258 17.3726 0 24 0H280C286.627 0 292 5.37258 292 12V264C292 270.627 286.627 276 280 276H24C17.3726 276 12 270.627 12 264V12Z" fill="white"/>
</clipPath>
</defs>
</svg>
